<svg version="1.1" id="Layer_1" xmlns="http://www.w3.org/2000/svg" xmlns:xlink="http://www.w3.org/1999/xlink" x="0px" y="0px"
	 width="100%" viewBox="132.505 139.805 234.092 234.092" enable-background="new 0 0 496 496" xml:space="preserve">
<path fill="#082044" opacity="1.000000" stroke="none" 
	d="
M253.036835,213.324265 
	C250.997498,212.079453 250.014389,210.501129 249.901428,208.607132 
	C249.524033,202.279602 249.212601,195.913223 251.729935,189.886032 
	C254.895584,182.306580 260.873383,178.417633 268.893860,178.383881 
	C278.994781,178.341339 283.440125,172.400681 282.173859,162.915649 
	C281.759552,159.812347 282.226440,156.597427 282.205170,153.434128 
	C282.175629,149.035431 284.552094,146.951538 288.622223,145.845917 
	C316.591675,138.248138 348.050995,159.777313 352.521912,188.342331 
	C357.744537,221.709839 332.355225,251.844040 295.969086,251.250748 
	C290.714233,251.165054 288.861725,249.411682 288.776886,243.955383 
	C288.683655,237.958679 288.701141,231.958633 288.775635,225.961349 
	C288.863953,218.854843 291.027313,216.505234 298.071594,216.787567 
	C304.725677,217.054245 310.671234,215.961487 315.302643,210.766434 
	C320.678772,204.736023 321.613129,195.342087 317.527039,188.482224 
	C313.504089,181.728378 305.479614,178.275497 297.798462,179.993210 
	C289.779572,181.786438 284.022675,188.512527 283.428131,197.065567 
	C283.186005,200.548920 283.258179,204.063232 283.356934,207.558685 
	C283.466553,211.438766 281.623566,213.733337 277.857727,213.844147 
	C269.718353,214.083633 261.557922,214.707336 253.036835,213.324265 
z"/>
<path fill="#082044" opacity="1.000000" stroke="none" 
	d="
M233.800232,145.697571 
	C241.208969,145.966187 242.313828,147.096603 242.328796,154.025787 
	C242.342834,160.520889 242.268890,167.016800 242.350250,173.510910 
	C242.407639,178.091904 240.278214,180.251999 235.704849,180.247101 
	C208.558578,180.218063 181.412247,180.204483 154.266006,180.240158 
	C149.695496,180.246170 147.575348,178.189896 147.548370,173.586258 
	C147.509354,166.929779 147.009521,160.270081 147.139160,153.620209 
	C147.262329,147.302460 149.104889,145.728851 155.385666,145.721832 
	C181.366196,145.692780 207.346756,145.702271 233.800232,145.697571 
z"/>
<path fill="#082044" opacity="1.000000" stroke="none" 
	d="
M185.545807,275.352478 
	C180.800766,268.806580 178.503647,261.887146 178.647751,254.090179 
	C178.813705,245.110382 178.641006,236.124847 178.728180,227.142883 
	C178.784668,221.325089 180.334244,219.813263 186.197388,219.732391 
	C192.517426,219.645218 198.840271,219.757675 205.160172,219.665970 
	C209.753311,219.599319 211.889954,221.956696 212.077072,226.321213 
	C212.212372,229.477203 212.060730,232.648544 212.268234,235.797806 
	C212.854675,244.697968 219.458664,251.244232 228.369186,251.802887 
	C230.855392,251.958740 233.359146,251.810669 235.851074,251.903366 
	C241.652039,252.119156 243.603027,254.298553 243.228989,260.034332 
	C242.196854,275.862000 225.254486,289.821106 209.439743,287.965149 
	C199.958588,286.852509 191.864807,283.196808 185.545807,275.352478 
z"/>
<path fill="#082044" opacity="1.000000" stroke="none" 
	d="
M254.344223,287.708496 
	C250.602341,286.724701 249.730072,284.177856 249.728790,281.121307 
	C249.721161,262.987732 249.723282,244.854156 249.745300,226.720627 
	C249.750687,222.280777 252.067093,219.848663 256.469452,219.770630 
	C263.287842,219.649750 270.112976,219.619766 276.929474,219.786560 
	C281.087830,219.888306 283.308380,222.295868 283.315826,226.506607 
	C283.337280,238.650986 283.606354,250.804306 283.232697,262.937317 
	C282.869415,274.734314 272.045197,285.380768 259.203400,287.313629 
	C257.726379,287.535950 256.228943,287.622650 254.344223,287.708496 
z"/>
<path fill="#082044" opacity="1.000000" stroke="none" 
	d="
M217.464935,368.476196 
	C216.111191,352.860657 216.824814,337.572815 216.707733,322.292816 
	C216.696548,320.832764 217.134232,319.534485 218.725937,319.309723 
	C221.987885,318.849121 225.401520,318.062622 227.646240,321.572083 
	C236.251053,316.979523 244.155609,317.870941 249.348999,323.972107 
	C255.261765,330.918427 255.632416,342.113190 250.192612,349.452118 
	C245.052139,356.387207 237.611572,357.733978 227.265793,353.125641 
	C227.265793,355.989990 227.268631,358.556671 227.265274,361.123352 
	C227.253586,370.047150 226.896591,370.336456 217.464935,368.476196 
M235.368622,328.339325 
	C227.922272,329.302490 224.418610,336.899323 228.555573,343.111786 
	C231.644287,347.750092 237.928329,347.772186 241.061127,343.155701 
	C244.829681,337.602448 242.546265,330.747253 235.368622,328.339325 
z"/>
<path fill="#082044" opacity="1.000000" stroke="none" 
	d="
M200.625977,355.090088 
	C187.485825,358.679169 177.166794,353.073822 174.429520,341.206940 
	C171.869904,330.110352 179.383072,320.109039 191.582855,318.372864 
	C201.821548,316.915771 211.510330,324.834351 212.320663,335.321777 
	C213.044510,344.689728 209.561279,350.732025 200.625977,355.090088 
M194.898773,328.472137 
	C188.317337,328.384705 185.408615,330.958405 185.266846,336.994690 
	C185.134598,342.624573 188.314285,346.545990 193.102982,346.658783 
	C197.622986,346.765228 201.189590,343.086121 201.289154,337.772369 
	C201.366211,333.659576 199.763199,330.311707 194.898773,328.472137 
z"/>
<path fill="#082044" opacity="1.000000" stroke="none" 
	d="
M286.873444,322.782593 
	C293.288239,318.241211 299.797150,317.089050 306.966675,319.769257 
	C315.715515,323.039825 320.304047,332.066772 318.163239,342.233368 
	C316.322632,350.974335 306.944946,357.238983 297.254089,356.201508 
	C287.819366,355.191437 280.996155,347.826813 280.627655,338.673309 
	C280.379639,332.513062 281.704254,327.136169 286.873444,322.782593 
M294.111298,344.398254 
	C296.736725,346.546204 299.560699,347.459808 302.825470,345.864349 
	C306.914703,343.865967 308.908661,338.548187 307.283508,333.912720 
	C305.897278,329.958771 301.845947,327.611084 297.842957,328.442047 
	C293.646515,329.313171 290.806946,333.929810 291.498901,338.890167 
	C291.752380,340.707428 292.391968,342.415405 294.111298,344.398254 
z"/>
<path fill="#082044" opacity="1.000000" stroke="none" 
	d="
M321.647278,337.044006 
	C321.281799,328.597321 325.209045,323.185303 332.189789,320.042816 
	C339.733459,316.646942 346.888916,317.828247 353.045471,323.373444 
	C354.891754,325.036438 357.402557,327.021057 355.845367,330.119904 
	C354.989014,331.824158 347.760498,332.327911 346.219940,330.814850 
	C342.979675,327.632355 339.496216,327.236877 335.891571,329.791290 
	C332.383087,332.277496 331.401215,337.808014 333.382538,342.077515 
	C335.459961,346.554077 340.635376,348.641144 344.062195,345.496460 
	C348.131317,341.762360 351.880646,343.210663 355.975494,344.248962 
	C356.061981,350.975433 349.315521,356.023468 340.559082,356.333923 
	C330.370209,356.695160 320.485626,349.531799 321.647278,337.044006 
z"/>
<path fill="#082044" opacity="1.000000" stroke="none" 
	d="
M211.179077,196.350067 
	C206.970322,203.413239 200.753647,207.987350 194.609863,212.425446 
	C191.029922,215.011459 186.330536,214.530609 182.052521,213.374039 
	C179.590317,212.708389 178.825623,210.589859 178.786789,208.318054 
	C178.690231,202.670502 178.647995,197.018967 178.752701,191.372147 
	C178.824203,187.514984 181.089462,185.700714 184.856354,185.683914 
	C190.339722,185.659454 195.823242,185.661957 201.306686,185.662933 
	C210.811752,185.664627 211.592621,186.474106 211.179077,196.350067 
z"/>
<path fill="#082044" opacity="1.000000" stroke="none" 
	d="
M146.936020,319.383301 
	C141.898468,319.412415 142.874802,316.017090 142.797943,313.326691 
	C142.712769,310.343811 144.688187,309.812866 147.109543,309.810150 
	C156.605103,309.799561 166.101761,309.843079 175.595673,309.705292 
	C179.735275,309.645203 179.986603,312.228485 180.086975,315.300140 
	C180.193771,318.569031 178.779770,319.881317 175.559540,319.463898 
	C174.411133,319.315033 173.219177,319.515289 172.066254,319.385742 
	C168.055283,318.935150 166.839462,320.850616 166.914154,324.644775 
	C167.081360,333.137085 166.810532,341.638397 167.001984,350.129669 
	C167.096863,354.337463 165.371429,355.569366 161.347870,355.509491 
	C157.516205,355.452423 155.466644,354.660370 155.622787,350.248169 
	C155.887741,342.761047 155.690262,335.257599 155.688248,327.761017 
	C155.686081,319.612335 155.686630,319.612335 146.936020,319.383301 
z"/>
<path fill="#082044" opacity="1.000000" stroke="none" 
	d="
M270.113953,321.269623 
	C271.234344,320.581604 272.031097,319.889893 272.952972,319.609283 
	C275.195892,318.926605 277.880859,317.221680 279.168610,320.798889 
	C280.669189,324.967285 279.063629,328.465729 275.443726,329.149231 
	C270.487610,330.085052 268.505707,333.323761 268.359283,337.965179 
	C268.217865,342.448334 268.191345,346.940308 268.292755,351.424377 
	C268.382812,355.406769 265.798645,355.419769 262.965240,355.430298 
	C260.124146,355.440857 257.614105,355.427063 257.659821,351.434418 
	C257.760590,342.627869 257.603516,333.818359 257.708893,325.011932 
	C257.732452,323.044403 256.619690,320.253052 259.502869,319.430481 
	C262.173370,318.668579 265.113220,318.272614 267.554077,320.337555 
	C268.261536,320.936005 268.529266,322.187469 270.113953,321.269623 
z"/>
</svg>