<svg version="1.1" id="Layer_1" xmlns="http://www.w3.org/2000/svg" xmlns:xlink="http://www.w3.org/1999/xlink" x="0px" y="0px"
	 width="100%" viewBox="82.233 77.504 337.577 337.577" enable-background="new 0 0 496 496" xml:space="preserve">
<path fill="#082044" opacity="1.000000" stroke="none" 
	d="
M320.757751,192.661499 
	C308.766235,198.113022 302.518768,206.786346 303.199982,219.939209 
	C303.406586,223.928726 303.361389,227.940948 303.229034,231.936081 
	C303.031311,237.904984 300.157135,241.110245 294.356598,241.202103 
	C282.693909,241.386826 271.023102,241.395493 259.361481,241.171875 
	C253.525467,241.059952 250.740891,238.140289 250.742279,232.387726 
	C250.743881,225.752686 250.209076,219.118332 251.571426,212.478363 
	C254.175629,199.785538 265.812012,189.819641 278.951080,189.701752 
	C284.328247,189.653488 289.588745,189.551361 294.385010,186.612518 
	C299.170197,183.680481 301.836487,179.643600 301.795074,173.910965 
	C301.743317,166.745041 301.697083,159.576920 301.815125,152.412506 
	C301.936462,145.048172 303.077667,143.339294 310.244232,141.558716 
	C343.504303,133.295074 371.899261,142.506195 394.047058,167.928223 
	C424.440582,202.815018 418.033478,253.869400 380.809052,281.015411 
	C363.683105,293.504578 344.121552,298.826752 323.084686,298.825439 
	C315.473175,298.824951 312.686493,295.661743 312.665344,287.988495 
	C312.636841,277.655701 312.612518,267.322418 312.677979,256.989929 
	C312.721588,250.106476 315.918121,246.893433 322.859375,246.959778 
	C327.512604,247.004242 332.127289,247.363968 336.801636,246.732788 
	C352.792969,244.573532 363.808777,230.245056 361.569672,214.244446 
	C359.504059,199.483475 342.960327,187.921005 327.856659,190.741623 
	C325.577179,191.167328 323.356384,191.907211 320.757751,192.661499 
z"/>
<path fill="#082044" opacity="1.000000" stroke="none" 
	d="
M114.000549,140.661484 
	C151.983582,140.663269 189.466751,140.660736 226.949921,140.670639 
	C235.610977,140.672928 238.216202,143.260544 238.261810,151.971222 
	C238.306290,160.467148 238.281326,168.963516 238.272751,177.459656 
	C238.261169,188.920868 236.301117,190.943771 224.998932,190.951599 
	C195.678848,190.971909 166.358734,190.960297 137.038635,190.956009 
	C124.710854,190.954208 112.382889,190.976440 100.055351,190.916763 
	C91.364494,190.874680 88.866028,188.340469 88.795410,179.505615 
	C88.720840,170.177002 88.699196,160.847183 88.758530,151.518539 
	C88.810501,143.345901 91.482231,140.708099 99.506897,140.670959 
	C104.171402,140.649368 108.836075,140.663589 114.000549,140.661484 
z"/>
<path fill="#082044" opacity="1.000000" stroke="none" 
	d="
M142.825287,325.998016 
	C139.124603,318.683228 137.678726,311.256134 137.705948,303.469086 
	C137.755463,289.302826 137.705002,275.136230 137.729324,260.969818 
	C137.743164,252.917679 140.448654,250.055710 148.450439,249.973434 
	C158.615692,249.868896 168.784592,249.860703 178.949005,250.009933 
	C187.445740,250.134689 190.138290,253.066467 190.174438,261.700104 
	C190.191193,265.699768 190.068542,269.702576 190.186569,273.698700 
	C190.620911,288.405304 202.349823,300.161102 217.088547,300.630310 
	C221.917191,300.784058 226.757278,300.570251 231.586639,300.711914 
	C236.677017,300.861206 239.410721,303.407867 239.293472,308.508087 
	C238.861145,327.313080 228.854614,340.181732 212.730682,348.240814 
	C186.891342,361.155792 157.384247,351.613464 142.825287,325.998016 
z"/>
<path fill="#082044" opacity="1.000000" stroke="none" 
	d="
M303.198303,288.999939 
	C302.826538,299.454956 304.214142,309.455994 302.396332,319.373871 
	C298.124542,342.680023 275.374329,353.278259 257.428619,352.332397 
	C252.972900,352.097565 250.723572,349.118530 250.690048,343.558563 
	C250.616791,331.410706 250.661209,319.262085 250.661682,307.113800 
	C250.662308,291.470764 250.637177,275.827667 250.682999,260.184753 
	C250.704483,252.851608 253.164429,250.168686 260.528412,250.037506 
	C271.341980,249.844818 282.162811,249.858810 292.977570,250.005035 
	C300.342834,250.104630 303.066833,252.987854 303.159882,260.542419 
	C303.274658,269.860321 303.192993,279.180664 303.198303,288.999939 
z"/>
<path fill="#082044" opacity="1.000000" stroke="none" 
	d="
M189.062103,206.556396 
	C189.895508,213.091248 187.873352,217.964111 183.046204,221.915176 
	C177.252319,226.657486 171.738571,231.740311 166.036438,236.596924 
	C159.273300,242.357208 151.291794,242.066406 143.290543,240.656113 
	C139.480225,239.984528 137.928101,236.750336 137.856689,233.188644 
	C137.683151,224.533005 137.607910,215.867340 137.836792,207.214813 
	C137.968597,202.232147 141.035599,199.129532 146.167908,199.013779 
	C157.652298,198.754730 169.146774,198.825073 180.635498,198.934540 
	C185.263519,198.978653 187.910492,201.754181 189.062103,206.556396 
z"/>
</svg>